{
	"asset":{
		"generator":"Khronos glTF Blender I/O v3.5.30",
		"version":"2.0"
	},
	"scene":0,
	"scenes":[
		{
			"name":"Scene",
			"nodes":[
				0,
				1,
				2,
				3,
				4
			]
		}
	],
	"nodes":[
		{
			"name":"07_person",
			"rotation":[
				-0.6220778822898865,
				-0.3361831605434418,
				-0.33618322014808655,
				0.6220778822898865
			],
			"scale":[
				100.00000762939453,
				100.00000762939453,
				100.00001525878906
			],
			"translation":[
				-136.25099182128906,
				0,
				60.7384033203125
			]
		},
		{
			"name":"13_person",
			"rotation":[
				-0.6916289925575256,
				0.14713704586029053,
				0.14713706076145172,
				0.6916290521621704
			],
			"scale":[
				55.990509033203125,
				55.990509033203125,
				55.99050521850586
			],
			"translation":[
				159.7802734375,
				0,
				50.888938903808594
			]
		},
		{
			"name":"07_person.001",
			"rotation":[
				-0.6220778822898865,
				-0.3361831605434418,
				-0.33618322014808655,
				0.6220778822898865
			],
			"scale":[
				100.00000762939453,
				100.00000762939453,
				100.00001525878906
			],
			"translation":[
				-136.25099182128906,
				0,
				60.7384033203125
			]
		},
		{
			"name":"13_person.001",
			"rotation":[
				-0.6916290521621704,
				0.14713707566261292,
				0.14713707566261292,
				0.6916289925575256
			],
			"scale":[
				55.990509033203125,
				55.99051284790039,
				55.99050521850586
			],
			"translation":[
				159.7802734375,
				0,
				50.888938903808594
			]
		},
		{
			"mesh":0,
			"name":"11_person__0",
			"rotation":[
				0.7071068286895752,
				0,
				0,
				0.7071068286895752
			],
			"scale":[
				0.08716080337762833,
				0.08716080337762833,
				0.08716080337762833
			]
		}
	],
	"materials":[
		{
			"doubleSided":true,
			"name":"Scene_-_Root.001",
			"pbrMetallicRoughness":{
				"metallicFactor":0,
				"roughnessFactor":0.48148149251937866
			}
		}
	],
	"meshes":[
		{
			"name":"11_person__0.001",
			"primitives":[
				{
					"attributes":{
						"POSITION":0,
						"TEXCOORD_0":1,
						"NORMAL":2
					},
					"indices":3,
					"material":0
				}
			]
		}
	],
	"accessors":[
		{
			"bufferView":0,
			"componentType":5126,
			"count":4500,
			"max":[
				18.407978057861328,
				22.707374572753906,
				0
			],
			"min":[
				-13.52713394165039,
				-18.89567756652832,
				-57.713409423828125
			],
			"type":"VEC3"
		},
		{
			"bufferView":1,
			"componentType":5126,
			"count":4500,
			"type":"VEC2"
		},
		{
			"bufferView":2,
			"componentType":5126,
			"count":4500,
			"type":"VEC3"
		},
		{
			"bufferView":3,
			"componentType":5123,
			"count":4500,
			"type":"SCALAR"
		}
	],
	"bufferViews":[
		{
			"buffer":0,
			"byteLength":54000,
			"byteOffset":0,
			"target":34962
		},
		{
			"buffer":0,
			"byteLength":36000,
			"byteOffset":54000,
			"target":34962
		},
		{
			"buffer":0,
			"byteLength":54000,
			"byteOffset":90000,
			"target":34962
		},
		{
			"buffer":0,
			"byteLength":9000,
			"byteOffset":144000,
			"target":34963
		}
	],
	"buffers":[
		{
			"byteLength":153000,
			"uri":"data:application/octet-stream;base64,"
		}
	]
}
