{
	"asset":{
		"generator":"Khronos glTF Blender I/O v3.5.30",
		"version":"2.0"
	},
	"scene":0,
	"scenes":[
		{
			"name":"Scene",
			"nodes":[
				0,
				1,
				2
			]
		}
	],
	"nodes":[
		{
			"name":"07_person",
			"rotation":[
				-0.6220778822898865,
				-0.3361831605434418,
				-0.33618322014808655,
				0.6220778822898865
			],
			"scale":[
				100.00000762939453,
				100.00000762939453,
				100.00001525878906
			],
			"translation":[
				-136.25099182128906,
				0,
				60.7384033203125
			]
		},
		{
			"name":"13_person",
			"rotation":[
				-0.6916289925575256,
				0.14713704586029053,
				0.14713706076145172,
				0.6916290521621704
			],
			"scale":[
				55.990509033203125,
				55.990509033203125,
				55.99050521850586
			],
			"translation":[
				159.7802734375,
				0,
				50.888938903808594
			]
		},
		{
			"mesh":0,
			"name":"40_person__0",
			"rotation":[
				0.7071068286895752,
				0,
				0,
				0.7071068286895752
			]
		}
	],
	"materials":[
		{
			"doubleSided":true,
			"name":"273_person__0.003",
			"pbrMetallicRoughness":{
				"metallicFactor":0
			}
		}
	],
	"meshes":[
		{
			"name":"40_person__0",
			"primitives":[
				{
					"attributes":{
						"POSITION":0,
						"TEXCOORD_0":1,
						"NORMAL":2
					},
					"indices":3,
					"material":0
				}
			]
		}
	],
	"accessors":[
		{
			"bufferView":0,
			"componentType":5126,
			"count":1500,
			"max":[
				-10.398250579833984,
				-2.3441359996795654,
				-0.007681999821215868
			],
			"min":[
				-13.79311466217041,
				-4.631449222564697,
				-9.807289123535156
			],
			"type":"VEC3"
		},
		{
			"bufferView":1,
			"componentType":5126,
			"count":1500,
			"type":"VEC2"
		},
		{
			"bufferView":2,
			"componentType":5126,
			"count":1500,
			"type":"VEC3"
		},
		{
			"bufferView":3,
			"componentType":5123,
			"count":1500,
			"type":"SCALAR"
		}
	],
	"bufferViews":[
		{
			"buffer":0,
			"byteLength":18000,
			"byteOffset":0,
			"target":34962
		},
		{
			"buffer":0,
			"byteLength":12000,
			"byteOffset":18000,
			"target":34962
		},
		{
			"buffer":0,
			"byteLength":18000,
			"byteOffset":30000,
			"target":34962
		},
		{
			"buffer":0,
			"byteLength":3000,
			"byteOffset":48000,
			"target":34963
		}
	],
	"buffers":[
		{
			"byteLength":51000,
			"uri":"data:application/octet-stream;base64,"
		}
	]
}
